<svg width="456.425px" height="121.60000610351562px" xmlns="http://www.w3.org/2000/svg" viewBox="21.787499999999994 14.199996948242188 456.425 121.60000610351562" style="background: rgba(0, 0, 0, 0);" preserveAspectRatio="xMidYMid"><filter id="editing-goldstamp"><feFlood flood-color="#797549" result="flood"></feFlood><feMorphology operator="dilate" radius="2" in="SourceGraphic" result="outline"></feMorphology><feComposite operator="in" in="flood" in2="outline" result="outline2"></feComposite><feGaussianBlur stdDeviation="4" in="SourceAlpha" result="blur"></feGaussianBlur><feSpecularLighting surfaceScale="2" specularConstant="0.7" specularExponent="10" lighting-color="#white" in="blur" result="specular"><fePointLight x="200" y="-1000" z="300"></fePointLight></feSpecularLighting><feComposite operator="in" in="specular" in2="SourceGraphic" result="specular2"></feComposite><feComposite in="SourceGraphic" in2="specular2" operator="arithmetic" k1="3" k2="2" k3="1" k4="0" result="specular3"></feComposite><feMerge><feMergeNode in="outline2"></feMergeNode><feMergeNode in="specular3"></feMergeNode></feMerge></filter><g filter="url(#editing-goldstamp)"><g transform="translate(89.86999967694283, 98.67999649047852)"><path d="M0.45-0.32L0.45-0.32L8.51-42.24L8.51-42.24Q16.06-42.88 20.93-42.88L20.93-42.88L20.93-42.88Q25.79-42.88 28.93-42.46L28.93-42.46L28.93-42.46Q32.06-42.05 34.18-40.96L34.18-40.96L34.18-40.96Q38.40-38.91 38.40-33.28L38.40-33.28L38.40-33.28Q38.40-30.02 35.58-27.26L35.58-27.26L35.58-27.26Q32.96-24.77 30.08-24.19L30.08-24.19L30.08-24.19Q33.15-23.68 35.33-21.38L35.33-21.38L35.33-21.38Q37.63-18.94 37.63-15.17L37.63-15.17L37.63-15.17Q37.63-7.87 32.19-3.62L32.19-3.62L32.19-3.62Q26.75 0.64 16.06 0.64L16.06 0.64L16.06 0.64Q8.70 0.64 0.45-0.32ZM17.86-20.61L14.66-4.03L14.66-4.03Q15.23-3.97 15.36-3.97L15.36-3.97L15.94-3.97L15.94-3.97Q21.18-3.97 23.42-7.42L23.42-7.42L23.42-7.42Q25.09-10.11 25.09-15.04L25.09-15.04L25.09-15.04Q25.09-17.66 23.39-19.07L23.39-19.07L23.39-19.07Q21.70-20.48 17.86-20.61L17.86-20.61ZM27.58-33.22L27.58-33.22L27.58-33.22Q27.58-38.53 22.46-38.53L22.46-38.53L21.89-38.53L21.89-38.53Q21.63-38.53 21.25-38.46L21.25-38.46L18.69-24.96L19.33-24.96L19.33-24.96Q27.58-25.15 27.58-33.22ZM55.81 1.28L55.81 1.28L55.81 1.28Q41.73 1.28 41.73-11.97L41.73-11.97L41.73-11.97Q41.73-21.38 46.91-27.46L46.91-27.46L46.91-27.46Q52.42-33.92 61.95-33.92L61.95-33.92L61.95-33.92Q68.86-33.92 72.38-30.72L72.38-30.72L72.38-30.72Q75.90-27.52 75.90-20.80L75.90-20.80L75.90-20.80Q75.90-10.56 70.40-4.61L70.40-4.61L70.40-4.61Q65.02 1.28 55.81 1.28ZM57.47-26.56L57.47-26.56L57.47-26.56Q56.70-24.83 56.10-22.24L56.10-22.24L56.10-22.24Q55.49-19.65 54.72-15.55L54.72-15.55L54.72-15.55Q53.95-11.46 53.95-6.40L53.95-6.40L53.95-6.40Q53.95-4.74 54.50-3.65L54.50-3.65L54.50-3.65Q55.04-2.56 56.51-2.56L56.51-2.56L56.51-2.56Q57.98-2.56 58.91-3.26L58.91-3.26L58.91-3.26Q59.84-3.97 60.54-5.63L60.54-5.63L60.54-5.63Q61.82-8.58 62.85-14.05L62.85-14.05L62.85-14.05Q63.87-19.52 63.97-21.89L63.97-21.89L63.97-21.89Q64.06-24.26 64.06-26.02L64.06-26.02L64.06-26.02Q64.06-27.78 63.55-28.93L63.55-28.93L63.55-28.93Q63.04-30.08 61.60-30.08L61.60-30.08L61.60-30.08Q60.16-30.08 59.20-29.18L59.20-29.18L59.20-29.18Q58.24-28.29 57.47-26.56ZM93.63 1.28L93.63 1.28L93.63 1.28Q79.55 1.28 79.55-11.97L79.55-11.97L79.55-11.97Q79.55-21.38 84.74-27.46L84.74-27.46L84.74-27.46Q90.24-33.92 99.78-33.92L99.78-33.92L99.78-33.92Q106.69-33.92 110.21-30.72L110.21-30.72L110.21-30.72Q113.73-27.52 113.73-20.80L113.73-20.80L113.73-20.80Q113.73-10.56 108.22-4.61L108.22-4.61L108.22-4.61Q102.85 1.28 93.63 1.28ZM95.30-26.56L95.30-26.56L95.30-26.56Q94.53-24.83 93.92-22.24L93.92-22.24L93.92-22.24Q93.31-19.65 92.54-15.55L92.54-15.55L92.54-15.55Q91.78-11.46 91.78-6.40L91.78-6.40L91.78-6.40Q91.78-4.74 92.32-3.65L92.32-3.65L92.32-3.65Q92.86-2.56 94.34-2.56L94.34-2.56L94.34-2.56Q95.81-2.56 96.74-3.26L96.74-3.26L96.74-3.26Q97.66-3.97 98.37-5.63L98.37-5.63L98.37-5.63Q99.65-8.58 100.67-14.05L100.67-14.05L100.67-14.05Q101.70-19.52 101.79-21.89L101.79-21.89L101.79-21.89Q101.89-24.26 101.89-26.02L101.89-26.02L101.89-26.02Q101.89-27.78 101.38-28.93L101.38-28.93L101.38-28.93Q100.86-30.08 99.42-30.08L99.42-30.08L99.42-30.08Q97.98-30.08 97.02-29.18L97.02-29.18L97.02-29.18Q96.06-28.29 95.30-26.56ZM134.02-30.34L134.02-30.34L134.02-30.34Q137.47-33.92 144.77-33.92L144.77-33.92L144.77-33.92Q148.80-33.92 151.01-31.78L151.01-31.78L151.01-31.78Q153.22-29.63 153.22-25.70L153.22-25.70L153.22-25.70Q153.22-21.76 151.01-18.98L151.01-18.98L151.01-18.98Q148.80-16.19 144.70-15.04L144.70-15.04L144.70-15.04Q145.02-13.76 145.47-12.42L145.47-12.42L146.37-9.86L146.37-9.86Q147.58-6.59 148.54-5.44L148.54-5.44L148.54-5.44Q149.50-4.29 150.78-3.90L150.78-3.90L150.78-3.90Q150.08-1.28 147.52 0.13L147.52 0.13L147.52 0.13Q145.47 1.28 142.66 1.28L142.66 1.28L142.66 1.28Q134.40 1.28 133.31-11.46L133.31-11.46L133.31-11.46Q133.12-13.25 133.12-15.04L133.12-15.04L133.12-15.04Q136.32-15.94 138.56-18.94L138.56-18.94L138.56-18.94Q140.80-21.95 140.80-25.47L140.80-25.47L140.80-25.47Q140.80-28.99 138.30-28.99L138.30-28.99L138.30-28.99Q136.51-28.99 135.10-27.01L135.10-27.01L135.10-27.01Q133.70-25.02 133.06-21.63L133.06-21.63L128.83 0L115.90 1.28L124.86-44.80L137.73-46.08L136.26-38.46L136.26-38.46Q135.30-33.09 134.02-30.34ZM181.12-29.57L181.12-29.57L181.12-29.57Q182.08-31.49 182.08-33.28L182.08-33.28L182.08-33.28Q182.08-35.07 181.89-36.06L181.89-36.06L181.89-36.06Q181.70-37.06 181.25-37.82L181.25-37.82L181.25-37.82Q180.29-39.49 178.37-39.49L178.37-39.49L178.37-39.49Q176-39.49 174.08-37.76L174.08-37.76L174.08-37.76Q172.03-35.97 172.03-33.15L172.03-33.15L172.03-33.15Q172.03-31.36 173.28-29.98L173.28-29.98L173.28-29.98Q174.53-28.61 176.45-27.33L176.45-27.33L176.45-27.33Q178.37-26.05 180.54-24.77L180.54-24.77L180.54-24.77Q182.72-23.49 184.64-21.95L184.64-21.95L184.64-21.95Q189.06-18.43 189.06-13.70L189.06-13.70L189.06-13.70Q189.06-10.50 187.36-7.78L187.36-7.78L187.36-7.78Q185.66-5.06 182.85-3.07L182.85-3.07L182.85-3.07Q176.70 1.28 168.58 1.28L168.58 1.28L168.58 1.28Q161.98 1.28 158.59-0.86L158.59-0.86L158.59-0.86Q155.20-3.01 155.20-6.27L155.20-6.27L155.20-6.27Q155.20-12.10 159.74-13.57L159.74-13.57L159.74-13.57Q161.02-14.02 162.98-14.02L162.98-14.02L162.98-14.02Q164.93-14.02 167.17-13.18L167.17-13.18L167.17-13.18Q166.14-10.56 166.14-8.19L166.14-8.19L166.14-8.19Q166.14-3.07 169.79-3.07L169.79-3.07L169.79-3.07Q172.16-3.07 174.11-4.80L174.11-4.80L174.11-4.80Q176.06-6.53 176.06-8.48L176.06-8.48L176.06-8.48Q176.06-10.43 174.82-11.84L174.82-11.84L174.82-11.84Q173.57-13.25 171.71-14.37L171.71-14.37L171.71-14.37Q169.86-15.49 167.71-16.58L167.71-16.58L167.71-16.58Q165.57-17.66 163.71-19.20L163.71-19.20L163.71-19.20Q159.36-22.72 159.36-28.35L159.36-28.35L159.36-28.35Q159.36-32 161.15-34.85L161.15-34.85L161.15-34.85Q162.94-37.70 165.82-39.62L165.82-39.62L165.82-39.62Q171.58-43.52 178.66-43.52L178.66-43.52L178.66-43.52Q185.73-43.52 189.15-41.41L189.15-41.41L189.15-41.41Q192.58-39.30 192.58-35.71L192.58-35.71L192.58-35.71Q192.58-32.58 190.14-30.59L190.14-30.59L190.14-30.59Q188.03-28.93 185.47-28.93L185.47-28.93L185.47-28.93Q182.91-28.93 181.12-29.57ZM194.94-6.40L194.94-6.40L194.94-6.40Q194.94-8.13 195.84-12.48L195.84-12.48L199.23-29.76L195.46-29.76L195.71-31.68L195.71-31.68Q203.39-33.98 210.82-39.62L210.82-39.62L213.89-39.62L212.35-32.64L217.34-32.64L216.77-29.76L211.84-29.76L208.58-12.48L208.58-12.48Q207.74-8.51 207.74-7.17L207.74-7.17L207.74-7.17Q207.74-4.10 210.43-3.46L210.43-3.46L210.43-3.46Q209.79-1.28 207.49 0L207.49 0L207.49 0Q205.18 1.28 201.92 1.28L201.92 1.28L201.92 1.28Q198.66 1.28 196.80-0.77L196.80-0.77L196.80-0.77Q194.94-2.82 194.94-6.40ZM230.72 1.28L230.72 1.28L230.72 1.28Q216.64 1.28 216.64-11.97L216.64-11.97L216.64-11.97Q216.64-21.38 221.82-27.46L221.82-27.46L221.82-27.46Q227.33-33.92 236.86-33.92L236.86-33.92L236.86-33.92Q243.78-33.92 247.30-30.72L247.30-30.72L247.30-30.72Q250.82-27.52 250.82-20.80L250.82-20.80L250.82-20.80Q250.82-10.56 245.31-4.61L245.31-4.61L245.31-4.61Q239.94 1.28 230.72 1.28ZM232.38-26.56L232.38-26.56L232.38-26.56Q231.62-24.83 231.01-22.24L231.01-22.24L231.01-22.24Q230.40-19.65 229.63-15.55L229.63-15.55L229.63-15.55Q228.86-11.46 228.86-6.40L228.86-6.40L228.86-6.40Q228.86-4.74 229.41-3.65L229.41-3.65L229.41-3.65Q229.95-2.56 231.42-2.56L231.42-2.56L231.42-2.56Q232.90-2.56 233.82-3.26L233.82-3.26L233.82-3.26Q234.75-3.97 235.46-5.63L235.46-5.63L235.46-5.63Q236.74-8.58 237.76-14.05L237.76-14.05L237.76-14.05Q238.78-19.52 238.88-21.89L238.88-21.89L238.88-21.89Q238.98-24.26 238.98-26.02L238.98-26.02L238.98-26.02Q238.98-27.78 238.46-28.93L238.46-28.93L238.46-28.93Q237.95-30.08 236.51-30.08L236.51-30.08L236.51-30.08Q235.07-30.08 234.11-29.18L234.11-29.18L234.11-29.18Q233.15-28.29 232.38-26.56ZM274.62-17.98L274.62-17.98L274.62-17.98Q276.93-22.08 276.93-26.24L276.93-26.24L276.93-26.24Q276.93-28.99 274.94-28.99L274.94-28.99L274.94-28.99Q273.41-28.99 271.81-26.37L271.81-26.37L271.81-26.37Q270.14-23.74 269.63-20.35L269.63-20.35L266.30 0L253.06 1.28L259.58-32.64L270.14-33.92L268.99-27.46L268.99-27.46Q272.13-33.92 279.17-33.92L279.17-33.92L279.17-33.92Q282.88-33.92 284.90-32L284.90-32L284.90-32Q286.91-30.08 286.91-26.14L286.91-26.14L286.91-26.14Q286.91-22.21 284.32-19.71L284.32-19.71L284.32-19.71Q281.73-17.22 277.31-17.22L277.31-17.22L277.31-17.22Q275.39-17.22 274.62-17.98ZM313.86-10.82L313.86-10.82L313.86-10.82Q315.46-9.73 315.46-7.33L315.46-7.33L315.46-7.33Q315.46-4.93 314.24-3.39L314.24-3.39L314.24-3.39Q313.02-1.86 311.04-0.83L311.04-0.83L311.04-0.83Q306.94 1.28 302.53 1.28L302.53 1.28L302.53 1.28Q298.11 1.28 295.52 0.32L295.52 0.32L295.52 0.32Q292.93-0.64 291.20-2.43L291.20-2.43L291.20-2.43Q287.81-5.82 287.81-12.03L287.81-12.03L287.81-12.03Q287.81-21.70 293.06-27.58L293.06-27.58L293.06-27.58Q298.69-33.92 308.48-33.92L308.48-33.92L308.48-33.92Q314.56-33.92 317.57-31.36L317.57-31.36L317.57-31.36Q319.81-29.44 319.81-26.30L319.81-26.30L319.81-26.30Q319.81-15.04 300.35-15.04L300.35-15.04L300.35-15.04Q300.10-13.38 300.10-11.97L300.10-11.97L300.10-11.97Q300.10-9.02 301.41-7.90L301.41-7.90L301.41-7.90Q302.72-6.78 305.15-6.78L305.15-6.78L305.15-6.78Q307.58-6.78 310.18-7.90L310.18-7.90L310.18-7.90Q312.77-9.02 313.86-10.82ZM300.80-17.79L300.80-17.79L300.80-17.79Q305.34-17.79 307.97-20.61L307.97-20.61L307.97-20.61Q310.59-23.30 310.59-27.58L310.59-27.58L310.59-27.58Q310.59-29.06 310.05-29.86L310.05-29.86L310.05-29.86Q309.50-30.66 308.42-30.66L308.42-30.66L308.42-30.66Q307.33-30.66 306.40-30.24L306.40-30.24L306.40-30.24Q305.47-29.82 304.51-28.42L304.51-28.42L304.51-28.42Q302.14-25.22 300.80-17.79Z" fill="#999569"></path></g></g><style>text {
  font-size: 64px;
  font-family: Arial Black;
  dominant-baseline: central;
  text-anchor: middle;
}</style></svg>